<svg width="468" height="191" viewBox="0 0 468 191" fill="none" xmlns="http://www.w3.org/2000/svg" overflow="visible">
<g id="pendulum">
<path d="M402.073 165.073V168.573" stroke="#F6AF34" stroke-width="2"/>
<path d="M402.573 7.57324V138.073" stroke="#F6AF34" stroke-width="5"/>
<circle cx="402.573" cy="151.073" r="12.75" fill="#F1F0F4" stroke="#F6AF34" stroke-width="2.5"/>
<path d="M393.573 149.573C393.573 150.886 393.832 152.187 394.334 153.4C394.837 154.613 395.573 155.716 396.502 156.644C397.431 157.573 398.533 158.309 399.746 158.812C400.959 159.315 402.26 159.573 403.573 159.573" stroke="#B1B0B2" stroke-width="3" stroke-linecap="round"/>
</g>
<circle cx="402.573" cy="9.57324" r="5" fill="black"/>
<rect id="btn-start" class="stopwatch-btn" x="8" y="64.5" width="80.5" height="31" rx="8" stroke="#66C904" stroke-width="2"/>
<rect id="btn-lap" class="stopwatch-btn" x="110" y="64.5" width="80.5" height="31" rx="8" stroke="black" stroke-width="2"/>
<rect id="btn-reset" class="stopwatch-btn" x="212" y="64.5" width="80.5" height="31" rx="8" stroke="black" stroke-width="2"/>
<path id="btn-start-label" d="M28.2936 75.19C29.3286 75.19 30.1986 75.55 30.9036 76.27L29.8386 77.35C29.4336 76.885 28.9086 76.66 28.2636 76.66C27.4686 76.66 26.8686 77.11 26.8686 77.785C26.8686 78.355 27.2136 78.79 27.8886 79.09C28.1886 79.21 28.8186 79.45 29.0586 79.555C30.3936 80.095 31.0686 81.025 31.0686 82.36C31.0686 83.17 30.7536 83.845 30.1386 84.385C29.5236 84.91 28.7736 85.18 27.8736 85.18C26.5686 85.18 25.5336 84.7 24.7686 83.755L25.8336 82.675C26.4336 83.365 27.0936 83.71 27.8286 83.71C28.7436 83.71 29.3586 83.17 29.3586 82.405C29.3586 81.7 28.9686 81.34 28.0536 80.965C27.2586 80.62 26.7936 80.425 26.6586 80.35C25.6536 79.81 25.1586 78.97 25.1586 77.83C25.1586 77.05 25.4586 76.42 26.0436 75.925C26.6286 75.43 27.3786 75.19 28.2936 75.19ZM36.9865 77.485C38.1415 77.485 39.0565 77.86 39.7465 78.595C40.4365 79.33 40.7815 80.23 40.7815 81.325C40.7815 82.42 40.4365 83.335 39.7465 84.07C39.0565 84.805 38.1415 85.18 36.9865 85.18C35.9965 85.18 35.2165 84.91 34.6465 84.355C34.6615 84.55 34.6765 84.7 34.6765 84.79V87.85H33.0265V77.65H34.6315V77.86C34.6315 77.965 34.6165 78.13 34.6015 78.325C35.2015 77.77 35.9965 77.485 36.9865 77.485ZM36.8665 78.955C36.2065 78.955 35.6665 79.18 35.2315 79.63C34.8115 80.08 34.6015 80.65 34.6015 81.325C34.6015 82 34.8115 82.57 35.2315 83.035C35.6665 83.485 36.2065 83.71 36.8665 83.71C37.4965 83.71 38.0365 83.485 38.4715 83.02C38.9065 82.555 39.1315 82 39.1315 81.325C39.1315 80.65 38.9065 80.095 38.4715 79.645C38.0365 79.18 37.4965 78.955 36.8665 78.955ZM47.347 77.65H48.997V82.15C48.997 83.125 48.682 83.875 48.052 84.415C47.422 84.94 46.642 85.21 45.727 85.21C44.812 85.21 44.032 84.94 43.402 84.415C42.772 83.875 42.457 83.125 42.457 82.15V77.65H44.107V82.09C44.107 83.185 44.812 83.74 45.727 83.74C46.672 83.74 47.347 83.185 47.347 82.09V77.65ZM53.6781 77.455C54.6231 77.455 55.3581 77.725 55.8831 78.25L55.0431 79.405C54.6681 79.06 54.2331 78.88 53.7231 78.88C53.0481 78.88 52.6731 79.165 52.6731 79.585C52.6731 79.99 52.9131 80.23 53.6181 80.47L54.3681 80.74C55.4931 81.13 56.0631 81.835 56.0631 82.855C56.0631 83.5 55.8081 84.04 55.2981 84.505C54.8031 84.97 54.1281 85.195 53.2731 85.195C52.2081 85.195 51.3681 84.85 50.7531 84.16L51.5931 83.005C52.0881 83.5 52.6281 83.74 53.2431 83.755C53.9181 83.77 54.4131 83.44 54.4131 82.915C54.4131 82.435 54.1431 82.195 53.4981 81.97L52.6131 81.67C51.5481 81.31 51.0231 80.635 51.0231 79.66C51.0231 79.015 51.2631 78.475 51.7581 78.07C52.2531 77.665 52.8981 77.455 53.6781 77.455ZM59.9532 75.715V77.65H61.5282V79.075H59.9532V85H58.3032V79.075H57.1932V77.65H58.3032V75.715H59.9532ZM64.7815 75.595C64.7815 76.12 64.3615 76.54 63.8665 76.54C63.3415 76.54 62.9365 76.12 62.9365 75.595C62.9365 75.1 63.3715 74.665 63.8665 74.665C64.3615 74.665 64.7815 75.1 64.7815 75.595ZM64.6915 77.65V85H63.0415V77.65H64.6915ZM69.1231 75.715V77.65H70.6981V79.075H69.1231V85H67.4731V79.075H66.3631V77.65H67.4731V75.715H69.1231Z" fill="#66C904"/>
<path d="M132.787 75.325L133.672 85H131.977L131.452 77.95C131.437 77.695 131.422 77.455 131.437 77.23H131.422L128.737 84.94H127.237L124.642 77.215H124.627C124.642 77.44 124.627 77.695 124.612 77.95L124.087 85H122.452L123.352 75.325H125.557L128.017 82.6H128.047L130.597 75.325H132.787ZM138.622 77.455C139.612 77.455 140.437 77.8 141.112 78.505C141.787 79.21 142.132 80.095 142.132 81.19C142.132 81.475 142.117 81.745 142.102 81.985H136.672C136.717 82.45 136.942 82.855 137.317 83.2C137.707 83.545 138.187 83.71 138.742 83.71C139.402 83.71 140.002 83.41 140.557 82.81L141.592 83.815C140.887 84.73 139.912 85.18 138.682 85.18C137.557 85.18 136.657 84.805 135.952 84.07C135.247 83.32 134.902 82.405 134.902 81.325C134.902 80.245 135.247 79.33 135.952 78.58C136.657 77.83 137.542 77.455 138.622 77.455ZM138.637 78.925C138.082 78.925 137.632 79.09 137.257 79.435C136.897 79.765 136.702 80.14 136.672 80.56H140.482C140.467 80.095 140.287 79.72 139.912 79.405C139.552 79.09 139.132 78.925 138.637 78.925ZM149.115 77.65V78.745L145.995 82.915C145.860 83.11 145.68 83.32 145.425 83.575H149.22V85H143.265V83.89L146.385 79.735C146.49 79.57 146.685 79.345 146.94 79.075H143.55V77.65H149.115ZM152.712 75.595C152.712 76.12 152.292 76.54 151.797 76.54C151.272 76.54 150.867 76.12 150.867 75.595C150.867 75.1 151.302 74.665 151.797 74.665C152.292 74.665 152.712 75.1 152.712 75.595ZM152.622 77.65V85H150.972V77.65H152.622ZM160.818 74.695L159.033 76.63H157.443L155.793 74.695H157.293L158.253 75.745L159.243 74.695H160.818ZM158.358 77.485C159.438 77.485 160.308 77.89 160.983 78.7L159.993 79.795C159.708 79.33 159.093 78.955 158.358 78.955C157.713 78.955 157.173 79.18 156.753 79.615C156.333 80.05 156.123 80.605 156.123 81.31C156.123 82 156.333 82.57 156.753 83.035C157.173 83.485 157.713 83.71 158.373 83.71C159.018 83.71 159.558 83.455 159.963 82.945L161.013 83.965C160.308 84.775 159.438 85.18 158.388 85.18C157.203 85.18 156.258 84.805 155.523 84.07C154.803 83.335 154.443 82.42 154.443 81.325C154.443 80.23 154.803 79.33 155.508 78.595C156.228 77.86 157.173 77.485 158.358 77.485ZM165.343 77.485C166.333 77.485 167.128 77.77 167.728 78.325C167.713 78.13 167.698 77.98 167.698 77.89V77.65H169.303V85H167.698V84.79C167.698 84.685 167.713 84.52 167.728 84.325C167.113 84.895 166.318 85.18 165.343 85.18C164.188 85.18 163.273 84.805 162.583 84.07C161.893 83.335 161.548 82.42 161.548 81.325C161.548 80.23 161.893 79.33 162.583 78.595C163.273 77.86 164.188 77.485 165.343 77.485ZM165.463 78.955C164.833 78.955 164.293 79.18 163.858 79.645C163.423 80.095 163.198 80.65 163.198 81.325C163.198 82 163.423 82.555 163.858 83.02C164.293 83.485 164.833 83.71 165.463 83.71C166.123 83.71 166.663 83.485 167.083 83.035C167.518 82.57 167.728 82 167.728 81.325C167.728 80.65 167.518 80.095 167.083 79.645C166.663 79.18 166.123 78.955 165.463 78.955ZM174.113 77.455C175.058 77.455 175.793 77.725 176.318 78.25L175.478 79.405C175.103 79.06 174.668 78.88 174.158 78.88C173.483 78.88 173.108 79.165 173.108 79.585C173.108 79.99 173.348 80.23 174.053 80.47L174.803 80.74C175.928 81.13 176.498 81.835 176.498 82.855C176.498 83.5 176.243 84.04 175.733 84.505C175.238 84.97 174.563 85.195 173.708 85.195C172.643 85.195 171.803 84.85 171.188 84.16L172.028 83.005C172.523 83.5 173.063 83.74 173.678 83.755C174.353 83.77 174.848 83.44 174.848 82.915C174.848 82.435 174.578 82.195 173.933 81.97L173.048 81.67C171.983 81.31 171.458 80.635 171.458 79.66C171.458 79.015 171.698 78.475 172.193 78.07C172.688 77.665 173.333 77.455 174.113 77.455Z" fill="black"/>
<text id="btn-stop-label" class="stopwatch-btn-label" x="48.25" y="84" text-anchor="middle" fill="#CC0000" visibility="hidden">Zastavit</text>
<text id="btn-reset-label" class="stopwatch-btn-label" x="252.25" y="84" text-anchor="middle" fill="black">Reset</text>
<text id="time-main" class="stopwatch-time stopwatch-time--main" x="18" y="32" fill="black">00 : 00,00</text>
</svg>
